<svg width="24" height="24" viewBox="0 0 24 24" fill="none" xmlns="http://www.w3.org/2000/svg">
<path d="M13.8568 3.5741C13.858 2.244 11.1458 1.16667 7.80401 1.16667C4.4622 1.16667 1.75242 2.2452 1.75 3.5741M1.75 3.5741C1.75 4.90421 4.45977 5.98154 7.80401 5.98154C11.1482 5.98154 13.858 4.90421 13.858 3.5741L13.858 12.9149M1.75 3.5741V18.0186C1.75121 19.3487 4.46099 20.426 7.80401 20.426C9.42528 20.426 10.8891 20.1697 11.9752 19.7568M1.75121 8.38895C1.75121 9.71906 4.46099 10.7964 7.80523 10.7964C11.1495 10.7964 13.8592 9.71906 13.8592 8.38895M12.0479 14.9192C10.9557 15.3465 9.45797 15.6113 7.80401 15.6113C4.46099 15.6113 1.75121 14.534 1.75121 13.2039M20.7378 13.5867C22.8652 15.7016 22.8652 19.1322 20.7378 21.2471C18.6104 23.3621 15.1596 23.3621 13.0323 21.2471C10.9049 19.1322 10.9049 15.7016 13.0323 13.5867C15.1596 11.4718 18.6104 11.4718 20.7378 13.5867Z" stroke="currentColor" stroke-width="2" stroke-linecap="round" stroke-linejoin="round"/>
</svg>
