<svg width="49" height="48" viewBox="0 0 49 48" fill="none" xmlns="http://www.w3.org/2000/svg">
<path d="M10.36 9.86L18.84 18.34M30.16 29.66L38.64 38.14M38.64 9.86L30.16 18.34L37.22 11.28M10.36 38.14L18.84 29.66M44.5 24C44.5 35.0457 35.5457 44 24.5 44C13.4543 44 4.5 35.0457 4.5 24C4.5 12.9543 13.4543 4 24.5 4C35.5457 4 44.5 12.9543 44.5 24ZM32.5 24C32.5 28.4183 28.9183 32 24.5 32C20.0817 32 16.5 28.4183 16.5 24C16.5 19.5817 20.0817 16 24.5 16C28.9183 16 32.5 19.5817 32.5 24Z" stroke="currentColor" stroke-width="2" stroke-linecap="round" stroke-linejoin="round"/>
</svg>
