<svg width="190" height="44" viewBox="0 0 190 44" fill="none" xmlns="http://www.w3.org/2000/svg">
<path d="M31.8529 19.4587C36.9787 16.4168 35.4407 11.6923 34.0841 9.60438C31.7936 15.1343 25.1611 13.6049 22.7167 14.4595C20.9809 14.9225 18.5318 16.2991 17.0609 17.5306C16.7424 17.7973 15.9243 18.3835 15.9645 18.749C16.0846 19.4114 16.7928 19.3424 17.3647 18.9831C19.072 17.9104 23.4151 15.8877 26.9697 16.6525C30.7243 17.9658 26.8406 19.0886 25.5019 20.4873C24.453 22.0981 25.4057 23.2618 25.9152 22.7786C27.8388 20.5294 28.6918 21.4304 31.8529 19.4587Z" fill="#FF2E6B"/>
<path d="M16.1474 24.5419C11.0215 27.5832 12.5601 32.3075 13.9169 34.3954C16.2071 28.866 22.84 30.3959 25.2844 29.5416C27.0202 29.0787 29.4694 27.7024 30.9402 26.4711C31.2587 26.2045 32.0769 25.6183 32.0366 25.2529C31.9164 24.5905 31.2082 24.6594 30.6363 25.0187C28.929 26.0911 24.5858 28.1133 21.031 27.3483C17.2761 26.0348 21.16 24.9124 22.4985 23.5139C23.5474 21.9033 22.5945 20.7396 22.085 21.2226C20.1615 23.4716 19.3085 22.5706 16.1474 24.5419Z" fill="#F4AE0B"/>
<path d="M175.199 30.3334C173.942 30.3334 172.814 29.9722 171.814 29.25C170.814 28.5208 170.022 27.5313 169.439 26.2813C168.863 25.0243 168.574 23.6111 168.574 22.0417C168.574 20.4653 168.863 19.0521 169.439 17.8021C170.022 16.5521 170.814 15.566 171.814 14.8438C172.814 14.1146 173.942 13.75 175.199 13.75C176.456 13.75 177.581 14.1146 178.574 14.8438C179.574 15.5729 180.366 16.5625 180.949 17.8125C181.533 19.0625 181.824 20.4722 181.824 22.0417C181.824 23.6111 181.533 25.0243 180.949 26.2813C180.373 27.5313 179.585 28.5208 178.585 29.25C177.585 29.9722 176.456 30.3334 175.199 30.3334ZM175.199 29.6667C176.331 29.6667 177.345 29.3334 178.241 28.6667C179.144 28 179.856 27.0903 180.376 25.9375C180.897 24.7847 181.158 23.4861 181.158 22.0417C181.158 20.5972 180.894 19.3021 180.366 18.1563C179.845 17.0035 179.137 16.0938 178.241 15.4271C177.345 14.7535 176.331 14.4167 175.199 14.4167C174.074 14.4167 173.06 14.7535 172.158 15.4271C171.262 16.0938 170.55 17.0035 170.022 18.1563C169.501 19.3021 169.241 20.5972 169.241 22.0417C169.241 23.4861 169.501 24.7847 170.022 25.9375C170.543 27.0903 171.251 28 172.147 28.6667C173.05 29.3334 174.067 29.6667 175.199 29.6667Z" fill="#FF2E6B"/>
<path d="M152.266 19.6251V30.0001H150.996V8.66675H152.266V16.5313H152.391C152.766 15.698 153.364 15.0348 154.183 14.5418C155.009 14.0418 155.999 13.7918 157.152 13.7918C158.228 13.7918 159.176 14.0209 159.996 14.4793C160.815 14.9306 161.454 15.5799 161.912 16.4272C162.378 17.2675 162.61 18.2744 162.61 19.448V30.0001H161.35V19.5001C161.35 18.132 160.944 17.0348 160.131 16.2084C159.319 15.382 158.246 14.9688 156.912 14.9688C156.016 14.9688 155.218 15.1633 154.516 15.5522C153.815 15.9411 153.263 16.4862 152.86 17.1876C152.464 17.882 152.266 18.6945 152.266 19.6251Z" fill="#FF2E6B"/>
<path d="M134.208 20.0001V30.0001H132.354V14.0001H134.156V16.5105H134.323C134.698 15.6911 135.281 15.0348 136.073 14.5417C136.871 14.0417 137.858 13.7917 139.031 13.7917C140.108 13.7917 141.052 14.0174 141.865 14.4688C142.684 14.9133 143.319 15.5695 143.771 16.4376C144.229 17.3056 144.458 18.3716 144.458 19.6355V30.0001H142.604V19.7501C142.604 18.4376 142.236 17.3994 141.5 16.6355C140.771 15.8716 139.792 15.4897 138.562 15.4897C137.722 15.4897 136.976 15.6702 136.323 16.0313C135.67 16.3924 135.153 16.9133 134.771 17.5938C134.396 18.2674 134.208 19.0695 134.208 20.0001Z" fill="#FF2E6B"/>
<path d="M123.729 30V14H126.187V30H123.729ZM124.979 11.3333C124.5 11.3333 124.087 11.1701 123.739 10.8438C123.399 10.5174 123.229 10.125 123.229 9.66667C123.229 9.20833 123.399 8.81597 123.739 8.48958C124.087 8.16319 124.5 8 124.979 8C125.458 8 125.868 8.16319 126.208 8.48958C126.555 8.81597 126.729 9.20833 126.729 9.66667C126.729 10.125 126.555 10.5174 126.208 10.8438C125.868 11.1701 125.458 11.3333 124.979 11.3333Z" fill="#FF2E6B"/>
<path d="M104.002 36.0001V14.0001H107.044V16.5938H107.304C107.485 16.2605 107.745 15.8751 108.085 15.4376C108.426 15.0001 108.898 14.6181 109.502 14.2917C110.106 13.9584 110.905 13.7917 111.898 13.7917C113.189 13.7917 114.342 14.1181 115.356 14.7709C116.37 15.4237 117.165 16.3647 117.742 17.5938C118.325 18.823 118.617 20.3022 118.617 22.0313C118.617 23.7605 118.328 25.2431 117.752 26.4793C117.176 27.7084 116.384 28.6563 115.377 29.323C114.37 29.9827 113.221 30.3126 111.929 30.3126C110.957 30.3126 110.162 30.1494 109.544 29.823C108.933 29.4966 108.453 29.1147 108.106 28.6772C107.759 28.2397 107.492 27.8508 107.304 27.5105H107.117V36.0001H104.002ZM107.054 22.0001C107.054 23.1251 107.217 24.1112 107.544 24.9584C107.87 25.8056 108.342 26.4688 108.96 26.948C109.578 27.4202 110.335 27.6563 111.231 27.6563C112.162 27.6563 112.939 27.4098 113.564 26.9168C114.189 26.4168 114.662 25.7397 114.981 24.8855C115.308 24.0313 115.471 23.0695 115.471 22.0001C115.471 20.9445 115.311 19.9966 114.992 19.1563C114.679 18.3161 114.207 17.6529 113.575 17.1668C112.95 16.6806 112.169 16.4376 111.231 16.4376C110.328 16.4376 109.564 16.6702 108.939 17.1355C108.321 17.6008 107.853 18.2501 107.533 19.0834C107.214 19.9168 107.054 20.889 107.054 22.0001Z" fill="#FF2E6B"/>
<path d="M98.5013 8.66675V30.0001H94.7305V8.66675H98.5013Z" fill="#FF2E6B"/>
<path d="M82.8572 30.3126C81.2114 30.3126 79.7947 29.9793 78.6072 29.3126C77.4267 28.639 76.517 27.6876 75.8781 26.4584C75.2392 25.2223 74.9197 23.7605 74.9197 22.073C74.9197 20.4272 75.2392 18.9827 75.8781 17.7397C76.517 16.4966 77.4163 15.5279 78.576 14.8334C79.7427 14.139 81.1107 13.7917 82.6802 13.7917C83.7357 13.7917 84.7184 13.9619 85.6281 14.3022C86.5448 14.6355 87.3434 15.139 88.0239 15.8126C88.7114 16.4862 89.2461 17.3334 89.6281 18.3543C90.01 19.3681 90.201 20.5556 90.201 21.9168V23.1355H76.6906V20.3855H86.0239C86.0239 19.7466 85.885 19.1806 85.6073 18.6876C85.3295 18.1945 84.9441 17.8091 84.451 17.5313C83.9649 17.2466 83.3989 17.1043 82.7531 17.1043C82.0795 17.1043 81.4822 17.2605 80.9614 17.573C80.4475 17.8786 80.0447 18.2918 79.7531 18.8126C79.4614 19.3265 79.3121 19.8994 79.3052 20.5313V23.1459C79.3052 23.9376 79.451 24.6216 79.7427 25.198C80.0413 25.7744 80.4614 26.2188 81.0031 26.5313C81.5447 26.8438 82.1871 27.0001 82.9302 27.0001C83.4232 27.0001 83.8746 26.9307 84.2843 26.7918C84.6941 26.6529 85.0448 26.4445 85.3364 26.1668C85.6281 25.889 85.8503 25.5487 86.0031 25.1459L90.1073 25.4168C89.8989 26.4029 89.4718 27.264 88.826 28.0001C88.1871 28.7293 87.3607 29.2987 86.3468 29.7084C85.3399 30.1112 84.1767 30.3126 82.8572 30.3126Z" fill="#FF2E6B"/>
<path d="M52 30.0001V8.66675H57.1563V17.2293H65.5625V8.66675H70.7084V30.0001H65.5625V21.4272H57.1563V30.0001H52Z" fill="#FF2E6B"/>
</svg>
