<svg width="32" height="32" viewBox="0 0 32 32" fill="none" xmlns="http://www.w3.org/2000/svg">
<path d="M23.8528 13.4587C28.9787 10.4168 27.4406 5.69234 26.0841 3.60438C23.7935 9.1343 17.161 7.60489 14.7167 8.45945C12.9809 8.92247 10.5317 10.2991 9.06086 11.5306C8.74231 11.7973 7.92419 12.3835 7.96441 12.749C8.08456 13.4114 8.79273 13.3424 9.36462 12.9831C11.072 11.9104 15.4151 9.88773 18.9697 10.6525C22.7243 11.9658 18.8405 13.0886 17.5019 14.4873C16.4529 16.0981 17.4057 17.2618 17.9151 16.7786C19.8388 14.5294 20.6917 15.4304 23.8528 13.4587Z" fill="#FF2E6B"/>
<path d="M8.14731 18.5419C3.02148 21.5832 4.56 26.3075 5.9168 28.3954C8.207 22.866 14.8399 24.3959 17.2843 23.5416C19.0202 23.0787 21.4693 21.7024 22.9401 20.4711C23.2587 20.2045 24.0768 19.6183 24.0365 19.2529C23.9163 18.5905 23.2081 18.6594 22.6362 19.0187C20.9289 20.0911 16.5858 22.1133 13.0309 21.3483C9.27605 20.0348 13.1599 18.9124 14.4985 17.5139C15.5473 15.9033 14.5945 14.7396 14.085 15.2226C12.1615 17.4716 11.3084 16.5706 8.14731 18.5419Z" fill="#F4AE0B"/>
</svg>
