<svg width="48" height="48" viewBox="0 0 48 48" fill="none" xmlns="http://www.w3.org/2000/svg">
<path d="M26.6495 21.3505L10.8812 37.1189M12.5829 25.6751L4.85931 23.8507C4.00956 23.6499 3.71069 22.595 4.32626 21.9772L10.4686 15.8349C10.8812 15.4223 11.441 15.1859 12.0276 15.1814L18.9527 15.1212M27.6755 7.19687C32.8298 10.7119 37.2882 15.1703 40.8032 20.3245M22.3227 35.4171L24.1471 43.1407C24.3479 43.9905 25.4028 44.2893 26.0206 43.6738L32.1629 37.5315C32.5755 37.1189 32.8119 36.559 32.8164 35.9725L32.8766 29.0473M42.1257 16.7003L43.9278 8.02878C44.4185 5.6691 42.3309 3.58152 39.9713 4.07219L31.2998 5.87429C28.746 6.40511 26.4042 7.6697 24.562 9.51417L17.4472 16.6267C14.7329 19.341 12.9665 22.8604 12.4089 26.6587L12.3844 26.8215C12.032 29.2458 12.8439 31.6925 14.5746 33.4254C16.3053 35.1562 18.7542 35.968 21.1786 35.6134L21.3414 35.5889C25.1396 35.0335 28.6591 33.2649 31.3734 30.5506L38.4859 23.4381C40.3303 21.5958 41.5949 19.254 42.1257 16.7003Z" stroke="currentColor" stroke-width="2" stroke-linecap="round" stroke-linejoin="round"/>
</svg>
